Coordinates
version=1
nRows=8
nColumns=36
inDegrees=yes

Units are S.I. units (second, meters, Newtons, ...)
If the header above contains a line with 'inDegrees', this indicates whether rotational values are in degrees (yes) or radians (no).

endheader
time	pelvis_tilt	pelvis_list	pelvis_rotation	pelvis_tx	pelvis_ty	pelvis_tz	hip_flexion_r	hip_adduction_r	hip_rotation_r	knee_angle_r	knee_angle_r_beta	ankle_angle_r	subtalar_angle_r	mtp_angle_r	hip_flexion_l	hip_adduction_l	hip_rotation_l	knee_angle_l	knee_angle_l_beta	ankle_angle_l	subtalar_angle_l	mtp_angle_l	lumbar_extension	lumbar_bending	lumbar_rotation	arm_flex_r	arm_add_r	arm_rot_r	elbow_flex_r	pro_sup_r	arm_flex_l	arm_add_l	arm_rot_l	elbow_flex_l	pro_sup_l
      5.40000000	    -39.00859362	      1.32144280	     -6.46013376	      0.99692989	      0.51201284	     -0.38807392	    107.28590630	    -18.44537671	     -3.23564739	    108.60709213	      1.89555135	     40.52113612	     -4.83384283	     -7.49999987	    114.81095185	    -19.38065959	     12.37327831	    106.34151914	      1.85600964	     32.76871471	     -4.04769318	     -7.49999987	    -24.57087239	      5.91437057	     15.27597374	     97.10806330	    -20.34918789	     80.88124554	    141.23854701	     82.30873008	     91.41592162	      9.67512775	     68.38288340	    114.68250303	    105.24473380
      5.41666670	    -39.11266443	      1.41584210	     -6.45018515	      0.99638411	      0.51647264	     -0.38813500	    106.71871695	    -18.48615207	     -3.32415964	    107.80466521	      1.88154636	     40.47665569	     -4.76075687	     -7.49999987	    114.13047492	    -19.33773935	     11.98052919	    105.67702437	      1.84441202	     32.94062745	     -4.05392040	     -7.49999987	    -24.03742063	      5.93547250	     14.99175544	     96.63907312	    -19.70353990	     79.59400227	    142.43903738	     79.99189308	     90.91453343	      9.74674850	     69.94575071	    116.13788673	    102.33701591
      5.43333330	    -39.16488357	      1.49618093	     -6.46041975	      0.99639359	      0.52909566	     -0.38608469	    105.72461733	    -18.47286376	     -3.58369713	    106.54913517	      1.85963322	     40.26770455	     -4.85959057	     -7.49999987	    113.08352033	    -19.33038500	     11.50715167	    104.59923061	      1.82560097	     33.04792039	     -4.11352770	     -7.49999987	    -23.95742492	      5.93255627	     14.49241322	     96.18191422	    -19.03972571	     78.43864220	    141.60827345	     83.72400761	     90.11347221	      8.81201198	     69.92452786	    115.26247288	    105.66570165
      5.45000000	    -39.40918687	      1.61065710	     -6.48128872	      0.99661298	      0.53903574	     -0.38580455	    104.85357692	    -18.42173513	     -3.87744004	    105.13592803	      1.83496811	     40.06771017	     -4.81407788	     -7.49999987	    112.14980860	    -19.40556296	     10.96682119	    103.35219358	      1.80383607	     32.99611098	     -4.10661380	     -7.49999987	    -23.60891788	      5.87827826	     14.55917142	     95.96015981	    -18.96370773	     78.76289061	    141.22227734	     83.73416864	     90.23091745	      8.79730201	     69.58566436	    114.94314372	    105.44838732
      5.46666670	    -39.24512194	      1.63882925	     -6.59401841	      0.99701839	      0.55335927	     -0.38636654	    103.19486846	    -18.29058331	     -4.38826870	    103.27880566	      1.80255521	     39.65698343	     -4.99957495	     -7.49999987	    110.49983954	    -19.57767730	     10.36140613	    101.73753941	      1.77565504	     32.79088016	     -4.38832671	     -7.49999987	    -23.64105334	      5.81174694	     15.03153360	     96.00560296	    -19.67326063	     82.06918776	    140.40366936	     83.27921111	     89.74257555	      9.38522779	     68.78864483	    113.35917409	    103.58155519
      5.48333330	    -39.66794516	      1.79884889	     -6.64969359	      0.99768482	      0.56446490	     -0.38751686	    102.17640544	    -18.20333678	     -4.81285378	    101.30061028	      1.76802918	     39.24878046	     -4.84456470	     -7.49999987	    109.41058289	    -19.71042287	      9.65135059	     99.97399349	      1.74487535	     32.57987159	     -4.32519611	     -7.49999987	    -23.16920770	      5.91386402	     14.91428343	     95.93971872	    -20.05705182	     82.15619981	    140.13967316	     83.23371284	     89.92720161	      9.13718323	     68.72066874	    113.32887018	    103.39001726
      5.50000000	    -39.19599498	      1.78549414	     -6.81929074	      1.00912243	      0.57489094	     -0.38595586	     99.84235070	    -18.04229358	     -5.42564784	     99.12077057	      1.72998380	     38.64382522	     -4.96583712	     -7.49999987	    107.04489503	    -19.88207086	      9.03463243	     98.03397481	      1.71101564	     32.29177024	     -4.67959419	     -7.49999987	    -23.11837348	      5.75761177	     14.86941810	     94.74195751	    -18.96412970	     82.48637907	    141.42687964	     83.38887719	     88.80308369	      9.48245979	     69.28401389	    113.93756714	    103.51728463
      5.51666670	    -38.84662972	      1.87911622	     -6.94397265	      1.00915236	      0.58936348	     -0.38470795	     97.64797579	    -17.86553068	     -5.88121601	     96.77834154	      1.68910070	     37.96891705	     -5.15820384	     -7.49999987	    104.69408623	    -20.06011483	      8.22730819	     95.89847223	      1.67374409	     32.00626203	     -4.89129388	     -7.49999987	    -23.12902259	      5.62159912	     14.84789106	     93.63195586	    -19.02210023	     82.74722863	    141.40198876	     83.45387793	     87.60206206	      8.99810952	     69.99193426	    114.74921697	    103.39830536
